<mxfile host="app.diagrams.net" agent="Mozilla/5.0 (Windows NT 10.0; Win64; x64) AppleWebKit/537.36 (KHTML, like Gecko) Chrome/130.0.0.0 Safari/537.36 Edg/130.0.0.0" version="24.8.6">
  <diagram name="Page-1" id="RxcmoddA1LAihrh1HWHs">
    <mxGraphModel dx="3071" dy="875" grid="1" gridSize="10" guides="1" tooltips="1" connect="1" arrows="1" fold="1" page="1" pageScale="1" pageWidth="1169" pageHeight="827" math="0" shadow="0">
      <root>
        <mxCell id="0" />
        <mxCell id="1" parent="0" />
        <mxCell id="iIMhR0-tJG2wTSax1DRc-52" value="" style="edgeStyle=orthogonalEdgeStyle;rounded=0;orthogonalLoop=1;jettySize=auto;html=1;" edge="1" parent="1" source="iIMhR0-tJG2wTSax1DRc-31" target="iIMhR0-tJG2wTSax1DRc-32">
          <mxGeometry relative="1" as="geometry" />
        </mxCell>
        <mxCell id="iIMhR0-tJG2wTSax1DRc-58" value="" style="edgeStyle=orthogonalEdgeStyle;rounded=0;orthogonalLoop=1;jettySize=auto;html=1;" edge="1" parent="1" source="iIMhR0-tJG2wTSax1DRc-31" target="iIMhR0-tJG2wTSax1DRc-57">
          <mxGeometry relative="1" as="geometry" />
        </mxCell>
        <mxCell id="iIMhR0-tJG2wTSax1DRc-31" value="Цикл for (від x = a до x &lt;= b з кроком step)" style="whiteSpace=wrap;strokeWidth=2;" vertex="1" parent="1">
          <mxGeometry x="678" y="361.5" width="256" height="67" as="geometry" />
        </mxCell>
        <mxCell id="iIMhR0-tJG2wTSax1DRc-32" value="Обчислити ряд за n" style="whiteSpace=wrap;strokeWidth=2;" vertex="1" parent="1">
          <mxGeometry x="703.5" y="469" width="205" height="48" as="geometry" />
        </mxCell>
        <mxCell id="iIMhR0-tJG2wTSax1DRc-33" value="Обчислити ряд за epsilon" style="whiteSpace=wrap;strokeWidth=2;" vertex="1" parent="1">
          <mxGeometry x="682.5" y="568" width="247" height="48" as="geometry" />
        </mxCell>
        <mxCell id="iIMhR0-tJG2wTSax1DRc-54" value="" style="edgeStyle=orthogonalEdgeStyle;rounded=0;orthogonalLoop=1;jettySize=auto;html=1;" edge="1" parent="1" source="iIMhR0-tJG2wTSax1DRc-34" target="iIMhR0-tJG2wTSax1DRc-53">
          <mxGeometry relative="1" as="geometry" />
        </mxCell>
        <mxCell id="iIMhR0-tJG2wTSax1DRc-34" value="Обчислити точне значення" style="whiteSpace=wrap;strokeWidth=2;" vertex="1" parent="1">
          <mxGeometry x="676.5" y="666" width="259" height="48" as="geometry" />
        </mxCell>
        <mxCell id="iIMhR0-tJG2wTSax1DRc-41" value="" style="curved=1;startArrow=none;endArrow=block;exitX=0.5;exitY=1.01;entryX=0.5;entryY=-0.01;rounded=0;" edge="1" parent="1" source="iIMhR0-tJG2wTSax1DRc-32" target="iIMhR0-tJG2wTSax1DRc-33">
          <mxGeometry relative="1" as="geometry">
            <Array as="points" />
          </mxGeometry>
        </mxCell>
        <mxCell id="iIMhR0-tJG2wTSax1DRc-42" value="" style="curved=1;startArrow=none;endArrow=block;exitX=0.5;exitY=1;entryX=0.5;entryY=0;rounded=0;" edge="1" parent="1" source="iIMhR0-tJG2wTSax1DRc-33" target="iIMhR0-tJG2wTSax1DRc-34">
          <mxGeometry relative="1" as="geometry">
            <Array as="points" />
          </mxGeometry>
        </mxCell>
        <mxCell id="iIMhR0-tJG2wTSax1DRc-2" value="Функція calculateSeriesFixedN" style="whiteSpace=wrap;strokeWidth=2;" vertex="1" parent="1">
          <mxGeometry x="-346" y="72.5" width="217" height="48" as="geometry" />
        </mxCell>
        <mxCell id="iIMhR0-tJG2wTSax1DRc-3" value="Ініціалізувати sum, term, cos_x" style="whiteSpace=wrap;strokeWidth=2;" vertex="1" parent="1">
          <mxGeometry x="-360" y="204.5" width="246" height="66" as="geometry" />
        </mxCell>
        <mxCell id="iIMhR0-tJG2wTSax1DRc-67" style="edgeStyle=orthogonalEdgeStyle;rounded=0;orthogonalLoop=1;jettySize=auto;html=1;entryX=0.5;entryY=0;entryDx=0;entryDy=0;" edge="1" parent="1" source="iIMhR0-tJG2wTSax1DRc-4" target="iIMhR0-tJG2wTSax1DRc-7">
          <mxGeometry relative="1" as="geometry" />
        </mxCell>
        <mxCell id="iIMhR0-tJG2wTSax1DRc-69" value="" style="edgeStyle=orthogonalEdgeStyle;rounded=0;orthogonalLoop=1;jettySize=auto;html=1;" edge="1" parent="1" source="iIMhR0-tJG2wTSax1DRc-4" target="iIMhR0-tJG2wTSax1DRc-5">
          <mxGeometry relative="1" as="geometry" />
        </mxCell>
        <mxCell id="iIMhR0-tJG2wTSax1DRc-4" value="Цикл для i від 1 до n" style="whiteSpace=wrap;strokeWidth=2;" vertex="1" parent="1">
          <mxGeometry x="-345" y="367.5" width="214" height="48" as="geometry" />
        </mxCell>
        <mxCell id="iIMhR0-tJG2wTSax1DRc-66" value="" style="edgeStyle=orthogonalEdgeStyle;rounded=0;orthogonalLoop=1;jettySize=auto;html=1;" edge="1" parent="1" source="iIMhR0-tJG2wTSax1DRc-5" target="iIMhR0-tJG2wTSax1DRc-6">
          <mxGeometry relative="1" as="geometry" />
        </mxCell>
        <mxCell id="iIMhR0-tJG2wTSax1DRc-5" value="Оновити term" style="whiteSpace=wrap;strokeWidth=2;" vertex="1" parent="1">
          <mxGeometry x="-319" y="470" width="162" height="48" as="geometry" />
        </mxCell>
        <mxCell id="iIMhR0-tJG2wTSax1DRc-6" value="Додати term до sum" style="whiteSpace=wrap;strokeWidth=2;" vertex="1" parent="1">
          <mxGeometry x="-342" y="568" width="209" height="48" as="geometry" />
        </mxCell>
        <mxCell id="iIMhR0-tJG2wTSax1DRc-7" value="Повернути результат" style="whiteSpace=wrap;strokeWidth=2;" vertex="1" parent="1">
          <mxGeometry x="-610" y="422" width="216" height="48" as="geometry" />
        </mxCell>
        <mxCell id="iIMhR0-tJG2wTSax1DRc-8" value="Функція calculateSeriesEpsilon" style="whiteSpace=wrap;strokeWidth=2;" vertex="1" parent="1">
          <mxGeometry x="233" y="82" width="219" height="48" as="geometry" />
        </mxCell>
        <mxCell id="iIMhR0-tJG2wTSax1DRc-9" value="Ініціалізувати sum, term, cos_x, i" style="whiteSpace=wrap;strokeWidth=2;" vertex="1" parent="1">
          <mxGeometry x="220" y="205" width="246" height="66" as="geometry" />
        </mxCell>
        <mxCell id="iIMhR0-tJG2wTSax1DRc-62" value="" style="edgeStyle=orthogonalEdgeStyle;rounded=0;orthogonalLoop=1;jettySize=auto;html=1;" edge="1" parent="1" source="iIMhR0-tJG2wTSax1DRc-10" target="iIMhR0-tJG2wTSax1DRc-11">
          <mxGeometry relative="1" as="geometry" />
        </mxCell>
        <mxCell id="iIMhR0-tJG2wTSax1DRc-64" style="edgeStyle=orthogonalEdgeStyle;rounded=0;orthogonalLoop=1;jettySize=auto;html=1;entryX=0.5;entryY=0;entryDx=0;entryDy=0;" edge="1" parent="1" source="iIMhR0-tJG2wTSax1DRc-10" target="iIMhR0-tJG2wTSax1DRc-14">
          <mxGeometry relative="1" as="geometry" />
        </mxCell>
        <mxCell id="iIMhR0-tJG2wTSax1DRc-10" value="while term &gt; epsilon" style="whiteSpace=wrap;strokeWidth=2;" vertex="1" parent="1">
          <mxGeometry x="227" y="346" width="232" height="66" as="geometry" />
        </mxCell>
        <mxCell id="iIMhR0-tJG2wTSax1DRc-11" value="Оновити term" style="whiteSpace=wrap;strokeWidth=2;" vertex="1" parent="1">
          <mxGeometry x="262" y="469" width="162" height="48" as="geometry" />
        </mxCell>
        <mxCell id="iIMhR0-tJG2wTSax1DRc-63" value="" style="edgeStyle=orthogonalEdgeStyle;rounded=0;orthogonalLoop=1;jettySize=auto;html=1;" edge="1" parent="1" source="iIMhR0-tJG2wTSax1DRc-12" target="iIMhR0-tJG2wTSax1DRc-13">
          <mxGeometry relative="1" as="geometry" />
        </mxCell>
        <mxCell id="iIMhR0-tJG2wTSax1DRc-12" value="sum += term" style="whiteSpace=wrap;strokeWidth=2;" vertex="1" parent="1">
          <mxGeometry x="238" y="568" width="209" height="48" as="geometry" />
        </mxCell>
        <mxCell id="iIMhR0-tJG2wTSax1DRc-61" style="edgeStyle=orthogonalEdgeStyle;rounded=0;orthogonalLoop=1;jettySize=auto;html=1;entryX=1;entryY=0.5;entryDx=0;entryDy=0;" edge="1" parent="1" source="iIMhR0-tJG2wTSax1DRc-13" target="iIMhR0-tJG2wTSax1DRc-10">
          <mxGeometry relative="1" as="geometry">
            <Array as="points">
              <mxPoint x="479" y="690" />
              <mxPoint x="479" y="379" />
            </Array>
          </mxGeometry>
        </mxCell>
        <mxCell id="iIMhR0-tJG2wTSax1DRc-13" value="Інкремент i" style="whiteSpace=wrap;strokeWidth=2;" vertex="1" parent="1">
          <mxGeometry x="270.5" y="666" width="145" height="48" as="geometry" />
        </mxCell>
        <mxCell id="iIMhR0-tJG2wTSax1DRc-14" value="Повернути результат" style="whiteSpace=wrap;strokeWidth=2;" vertex="1" parent="1">
          <mxGeometry x="-10" y="421" width="216" height="48" as="geometry" />
        </mxCell>
        <mxCell id="iIMhR0-tJG2wTSax1DRc-15" value="" style="curved=1;startArrow=none;endArrow=block;exitX=0.5;exitY=1;entryX=0.5;entryY=0;rounded=0;" edge="1" parent="1" source="iIMhR0-tJG2wTSax1DRc-2" target="iIMhR0-tJG2wTSax1DRc-3">
          <mxGeometry relative="1" as="geometry">
            <Array as="points" />
          </mxGeometry>
        </mxCell>
        <mxCell id="iIMhR0-tJG2wTSax1DRc-16" value="" style="curved=1;startArrow=none;endArrow=block;exitX=0.5;exitY=1;entryX=0.5;entryY=0.01;rounded=0;" edge="1" parent="1" source="iIMhR0-tJG2wTSax1DRc-3" target="iIMhR0-tJG2wTSax1DRc-4">
          <mxGeometry relative="1" as="geometry">
            <Array as="points" />
          </mxGeometry>
        </mxCell>
        <mxCell id="iIMhR0-tJG2wTSax1DRc-21" value="" style="curved=1;startArrow=none;endArrow=block;exitX=0.5;exitY=1;entryX=0.5;entryY=0;rounded=0;" edge="1" parent="1" source="iIMhR0-tJG2wTSax1DRc-8" target="iIMhR0-tJG2wTSax1DRc-9">
          <mxGeometry relative="1" as="geometry">
            <Array as="points" />
          </mxGeometry>
        </mxCell>
        <mxCell id="iIMhR0-tJG2wTSax1DRc-22" value="" style="curved=1;startArrow=none;endArrow=block;exitX=0.5;exitY=1;entryX=0.5;entryY=0;rounded=0;" edge="1" parent="1" source="iIMhR0-tJG2wTSax1DRc-9" target="iIMhR0-tJG2wTSax1DRc-10">
          <mxGeometry relative="1" as="geometry">
            <Array as="points" />
          </mxGeometry>
        </mxCell>
        <mxCell id="iIMhR0-tJG2wTSax1DRc-24" value="" style="curved=1;startArrow=none;endArrow=block;exitX=0.5;exitY=1.01;entryX=0.5;entryY=0;rounded=0;" edge="1" parent="1" source="iIMhR0-tJG2wTSax1DRc-11" target="iIMhR0-tJG2wTSax1DRc-12">
          <mxGeometry relative="1" as="geometry">
            <Array as="points" />
          </mxGeometry>
        </mxCell>
        <mxCell id="iIMhR0-tJG2wTSax1DRc-50" value="" style="edgeStyle=orthogonalEdgeStyle;rounded=0;orthogonalLoop=1;jettySize=auto;html=1;" edge="1" parent="1" source="iIMhR0-tJG2wTSax1DRc-46" target="iIMhR0-tJG2wTSax1DRc-48">
          <mxGeometry relative="1" as="geometry" />
        </mxCell>
        <mxCell id="iIMhR0-tJG2wTSax1DRc-46" value="start" style="ellipse;whiteSpace=wrap;html=1;" vertex="1" parent="1">
          <mxGeometry x="749" y="60" width="114" height="70" as="geometry" />
        </mxCell>
        <mxCell id="iIMhR0-tJG2wTSax1DRc-51" value="" style="edgeStyle=orthogonalEdgeStyle;rounded=0;orthogonalLoop=1;jettySize=auto;html=1;" edge="1" parent="1" source="iIMhR0-tJG2wTSax1DRc-48" target="iIMhR0-tJG2wTSax1DRc-49">
          <mxGeometry relative="1" as="geometry" />
        </mxCell>
        <mxCell id="iIMhR0-tJG2wTSax1DRc-48" value="Ініціалізація a, b, k, n, epsilon, step" style="shape=parallelogram;perimeter=parallelogramPerimeter;whiteSpace=wrap;html=1;fixedSize=1;" vertex="1" parent="1">
          <mxGeometry x="691" y="170" width="230" height="56" as="geometry" />
        </mxCell>
        <mxCell id="iIMhR0-tJG2wTSax1DRc-60" value="" style="edgeStyle=orthogonalEdgeStyle;rounded=0;orthogonalLoop=1;jettySize=auto;html=1;" edge="1" parent="1" source="iIMhR0-tJG2wTSax1DRc-49" target="iIMhR0-tJG2wTSax1DRc-31">
          <mxGeometry relative="1" as="geometry" />
        </mxCell>
        <mxCell id="iIMhR0-tJG2wTSax1DRc-49" value="Вивід заголовків таблиці" style="shape=parallelogram;perimeter=parallelogramPerimeter;whiteSpace=wrap;html=1;fixedSize=1;" vertex="1" parent="1">
          <mxGeometry x="746" y="260" width="120" height="60" as="geometry" />
        </mxCell>
        <mxCell id="iIMhR0-tJG2wTSax1DRc-55" style="edgeStyle=orthogonalEdgeStyle;rounded=0;orthogonalLoop=1;jettySize=auto;html=1;entryX=0;entryY=0.5;entryDx=0;entryDy=0;" edge="1" parent="1" source="iIMhR0-tJG2wTSax1DRc-53" target="iIMhR0-tJG2wTSax1DRc-31">
          <mxGeometry relative="1" as="geometry">
            <Array as="points">
              <mxPoint x="590" y="779" />
              <mxPoint x="590" y="395" />
            </Array>
          </mxGeometry>
        </mxCell>
        <mxCell id="iIMhR0-tJG2wTSax1DRc-53" value="вивід результатів" style="shape=parallelogram;perimeter=parallelogramPerimeter;whiteSpace=wrap;html=1;fixedSize=1;" vertex="1" parent="1">
          <mxGeometry x="736.5" y="749" width="139" height="60" as="geometry" />
        </mxCell>
        <mxCell id="iIMhR0-tJG2wTSax1DRc-57" value="end" style="ellipse;whiteSpace=wrap;html=1;" vertex="1" parent="1">
          <mxGeometry x="1000" y="355" width="120" height="80" as="geometry" />
        </mxCell>
        <mxCell id="iIMhR0-tJG2wTSax1DRc-59" value="&lt;font style=&quot;font-size: 14px;&quot;&gt;main&lt;/font&gt;" style="text;html=1;align=center;verticalAlign=middle;resizable=0;points=[];autosize=1;strokeColor=none;fillColor=none;" vertex="1" parent="1">
          <mxGeometry x="781" y="20" width="50" height="30" as="geometry" />
        </mxCell>
        <mxCell id="iIMhR0-tJG2wTSax1DRc-65" value="end" style="text;html=1;align=center;verticalAlign=middle;resizable=0;points=[];autosize=1;strokeColor=none;fillColor=none;" vertex="1" parent="1">
          <mxGeometry x="110" y="355" width="40" height="30" as="geometry" />
        </mxCell>
        <mxCell id="iIMhR0-tJG2wTSax1DRc-68" value="кінецт" style="text;html=1;align=center;verticalAlign=middle;resizable=0;points=[];autosize=1;strokeColor=none;fillColor=none;" vertex="1" parent="1">
          <mxGeometry x="-450" y="368" width="60" height="30" as="geometry" />
        </mxCell>
      </root>
    </mxGraphModel>
  </diagram>
</mxfile>
